<mxfile host="app.diagrams.net" modified="2022-07-15T09:35:41.310Z" agent="5.0 (Macintosh)" etag="MsJZ5UzVhGvit47xuRqm" version="20.1.1" type="github">
  <diagram id="Y-oLGiO0f5WZMaa3_dNL" name="Page-1">
    <mxGraphModel dx="1073" dy="623" grid="1" gridSize="10" guides="1" tooltips="1" connect="1" arrows="1" fold="1" page="1" pageScale="1" pageWidth="827" pageHeight="1169" math="0" shadow="0">
      <root>
        <mxCell id="0" />
        <mxCell id="1" parent="0" />
        <mxCell id="GPhRCMfvqE2VLCdwx9G3-9" value="&lt;div align=&quot;right&quot;&gt;3rd party KYB/C provider&lt;br&gt;&lt;/div&gt;" style="rounded=0;whiteSpace=wrap;html=1;verticalAlign=top;" vertex="1" parent="1">
          <mxGeometry x="560" y="80" width="200" height="160" as="geometry" />
        </mxCell>
        <mxCell id="GPhRCMfvqE2VLCdwx9G3-6" value="&lt;div align=&quot;right&quot;&gt;SaltPay Cloud Platform&lt;br&gt;&lt;/div&gt;" style="rounded=0;whiteSpace=wrap;html=1;verticalAlign=top;strokeColor=#B266FF;" vertex="1" parent="1">
          <mxGeometry x="40" y="80" width="480" height="160" as="geometry" />
        </mxCell>
        <mxCell id="GPhRCMfvqE2VLCdwx9G3-10" value="" style="edgeStyle=orthogonalEdgeStyle;rounded=0;orthogonalLoop=1;jettySize=auto;html=1;" edge="1" parent="1" source="GPhRCMfvqE2VLCdwx9G3-1" target="GPhRCMfvqE2VLCdwx9G3-5">
          <mxGeometry relative="1" as="geometry" />
        </mxCell>
        <mxCell id="GPhRCMfvqE2VLCdwx9G3-11" value="send KYC data" style="edgeLabel;html=1;align=center;verticalAlign=middle;resizable=0;points=[];" vertex="1" connectable="0" parent="GPhRCMfvqE2VLCdwx9G3-10">
          <mxGeometry x="-0.2141" y="1" relative="1" as="geometry">
            <mxPoint x="13" y="1" as="offset" />
          </mxGeometry>
        </mxCell>
        <mxCell id="GPhRCMfvqE2VLCdwx9G3-1" value="KYC assessment" style="rounded=0;whiteSpace=wrap;html=1;fillColor=#e1d5e7;strokeColor=#9673a6;" vertex="1" parent="1">
          <mxGeometry x="360" y="120" width="120" height="80" as="geometry" />
        </mxCell>
        <mxCell id="GPhRCMfvqE2VLCdwx9G3-7" value="" style="edgeStyle=orthogonalEdgeStyle;rounded=0;orthogonalLoop=1;jettySize=auto;html=1;" edge="1" parent="1" source="GPhRCMfvqE2VLCdwx9G3-2" target="GPhRCMfvqE2VLCdwx9G3-1">
          <mxGeometry relative="1" as="geometry" />
        </mxCell>
        <mxCell id="GPhRCMfvqE2VLCdwx9G3-8" value="provide KYC data" style="edgeLabel;html=1;align=center;verticalAlign=middle;resizable=0;points=[];" vertex="1" connectable="0" parent="GPhRCMfvqE2VLCdwx9G3-7">
          <mxGeometry x="-0.003" relative="1" as="geometry">
            <mxPoint as="offset" />
          </mxGeometry>
        </mxCell>
        <mxCell id="GPhRCMfvqE2VLCdwx9G3-2" value="GMD" style="rounded=0;whiteSpace=wrap;html=1;" vertex="1" parent="1">
          <mxGeometry x="80" y="120" width="120" height="80" as="geometry" />
        </mxCell>
        <mxCell id="GPhRCMfvqE2VLCdwx9G3-5" value="&lt;div&gt;TruNarrative&lt;/div&gt;" style="rounded=0;whiteSpace=wrap;html=1;" vertex="1" parent="1">
          <mxGeometry x="600" y="120" width="120" height="80" as="geometry" />
        </mxCell>
        <mxCell id="GPhRCMfvqE2VLCdwx9G3-12" value="KYC assessment" style="text;html=1;strokeColor=none;fillColor=none;align=center;verticalAlign=middle;whiteSpace=wrap;rounded=0;fontSize=27;" vertex="1" parent="1">
          <mxGeometry x="40" y="30" width="720" height="30" as="geometry" />
        </mxCell>
      </root>
    </mxGraphModel>
  </diagram>
</mxfile>
